<?xml version="1.0" standalone="no"?>
<!DOCTYPE svg PUBLIC "-//W3C//DTD SVG 20010904//EN"
 "http://www.w3.org/TR/2001/REC-SVG-20010904/DTD/svg10.dtd">
<svg version="1.0" xmlns="http://www.w3.org/2000/svg"
 width="1536.000000pt" height="946.000000pt" viewBox="0 0 1536.000000 946.000000"
 preserveAspectRatio="xMidYMid meet">
<metadata>
Created by potrace 1.15, written by Peter Selinger 2001-2017
</metadata>
<g transform="translate(0.000000,946.000000) scale(0.100000,-0.100000)"
fill="#000000" stroke="none">
<path d="M7040 9449 c-2645 -138 -4976 -1098 -6198 -2554 -469 -559 -753
-1186 -827 -1825 -20 -176 -20 -504 0 -680 90 -780 475 -1506 1151 -2171 179
-176 236 -227 419 -374 1061 -849 2554 -1453 4230 -1709 628 -96 1173 -136
1865 -136 692 0 1237 40 1865 136 1676 256 3169 860 4230 1709 183 147 240
198 419 374 676 665 1061 1391 1151 2171 20 176 20 504 0 680 -123 1069 -820
2066 -1998 2858 -1317 886 -3096 1422 -5055 1522 -232 11 -1020 11 -1252 -1z
m-2755 -1166 c17 -12 56 -33 87 -46 52 -23 60 -31 116 -123 34 -55 679 -1128
1434 -2386 l1373 -2288 3 2379 2 2379 52 12 c46 9 54 9 65 -6 9 -12 1207
-3003 1444 -3604 28 -70 28 -76 12 -87 -15 -12 -15 -13 5 -13 l22 0 -2 -1836
-3 -1837 -51 -16 c-53 -18 -139 -64 -149 -81 -4 -6 -239 -10 -656 -10 l-650 0
-54 43 c-30 23 -63 49 -74 57 -22 17 -75 104 -1676 2773 l-1180 1967 -3 -2319
-2 -2318 -84 -1 -84 -1 -47 112 c-26 62 -347 861 -712 1776 -623 1559 -664
1665 -647 1678 17 12 17 13 -4 13 l-22 0 2 1814 3 1814 51 53 c27 30 59 68 69
86 11 19 29 34 44 36 14 3 310 4 656 3 630 -1 630 -1 660 -23z m6636 -5525
c97 -44 153 -122 168 -233 l7 -53 -82 -7 c-88 -7 -104 -4 -104 23 0 9 -9 32
-20 50 -62 101 -280 73 -280 -36 0 -54 38 -83 160 -121 154 -49 219 -81 266
-132 59 -65 79 -125 79 -234 0 -111 -21 -171 -82 -236 -59 -63 -125 -90 -234
-97 -218 -12 -360 106 -385 321 l-6 54 62 6 c108 12 106 12 118 -36 24 -92 80
-145 163 -154 108 -11 189 51 189 145 0 66 -32 90 -186 141 -148 49 -171 60
-220 104 -114 99 -127 310 -27 426 63 75 141 102 274 97 66 -3 99 -9 140 -28z
m-641 -78 l0 -90 -235 0 -235 0 0 -125 0 -125 220 0 220 0 0 -85 0 -85 -220 0
-220 0 0 -145 0 -145 245 0 245 0 0 -90 0 -90 -335 0 -335 0 0 535 0 535 325
0 325 0 0 -90z m1630 0 l0 -90 -130 0 -130 0 0 -445 0 -445 -90 0 -90 0 0 445
0 445 -130 0 -130 0 0 90 0 90 350 0 350 0 0 -90z m760 0 l0 -90 -235 0 -235
0 0 -125 0 -125 220 0 220 0 0 -85 0 -85 -220 0 -220 0 0 -145 0 -145 245 0
245 0 0 -90 0 -90 -335 0 -335 0 0 535 0 535 325 0 325 0 0 -90z m664 69 c52
-18 136 -96 169 -157 49 -91 69 -190 70 -352 1 -275 -74 -441 -231 -513 -43
-20 -68 -22 -274 -25 l-228 -4 0 537 0 537 228 -5 c157 -3 239 -8 266 -18z"/>
<path d="M3612 7078 c374 -623 682 -1135 684 -1137 2 -2 4 507 4 1132 l0 1137
-684 0 -684 0 680 -1132z"/>
<path d="M2900 6290 l-1 -1775 698 -1747 698 -1746 3 2356 2 2356 -692 1156
c-380 635 -695 1159 -700 1165 -4 5 -8 -790 -8 -1765z"/>
<path d="M4400 6915 l0 -1150 1448 -2413 1447 -2413 3 1148 2 1148 -1442 2405
c-793 1323 -1445 2409 -1450 2415 -4 5 -8 -508 -8 -1140z"/>
<path d="M7400 5625 l0 -2359 698 -1164 697 -1163 2 1778 2 1778 -699 1745
-699 1745 -1 -2360z"/>
<path d="M7400 1942 l0 -1122 676 0 676 0 -14 23 c-9 12 -311 515 -673 1117
-361 602 -659 1097 -661 1099 -2 2 -4 -500 -4 -1117z"/>
<path d="M13020 2235 l0 -357 118 3 c140 5 175 19 209 89 35 69 46 150 40 300
-5 144 -14 188 -50 241 -39 58 -76 72 -204 77 l-113 5 0 -358z"/>
</g>
</svg>
