<?xml version="1.0" standalone="no"?>
<!DOCTYPE svg PUBLIC "-//W3C//DTD SVG 20010904//EN"
 "http://www.w3.org/TR/2001/REC-SVG-20010904/DTD/svg10.dtd">
<svg version="1.0" xmlns="http://www.w3.org/2000/svg"
 width="1000.000000pt" height="700.000000pt" viewBox="0 0 1000.000000 700.000000"
 preserveAspectRatio="xMidYMid meet">
<metadata>
Created by potrace 1.15, written by Peter Selinger 2001-2017
</metadata>
<g transform="translate(0.000000,700.000000) scale(0.100000,-0.100000)"
fill="#000000" stroke="none">
<path d="M242 5303 l3 -1488 81 -205 c268 -674 918 -2295 986 -2458 86 -204
84 -202 146 -186 l22 6 0 1837 0 1836 1108 -1847 1107 -1847 606 -1 c552 0
608 1 620 17 12 13 14 251 14 1462 l0 1446 -84 215 c-138 356 -937 2349 -1008
2516 l-66 156 -30 -6 c-16 -3 -33 -6 -38 -6 -5 0 -10 -356 -10 -812 -1 -447
-5 -1271 -8 -1832 l-6 -1018 -1101 1833 c-703 1171 -1109 1838 -1123 1844 -11
5 -21 13 -21 17 0 5 -270 8 -600 8 l-600 0 2 -1487z m1148 550 c0 -479 -4
-853 -9 -847 -11 12 -1011 1681 -1011 1687 0 13 63 15 528 16 l492 1 0 -857z
m1204 -1141 l1106 -1844 -1 -376 c-1 -208 -5 -591 -8 -853 l-6 -477 -1102
1839 -1103 1838 0 862 c0 474 2 860 4 858 2 -2 502 -834 1110 -1847z m-1725
953 l521 -870 0 -1790 -1 -1790 -534 1338 -535 1339 0 1252 c0 1184 3 1418 20
1399 4 -4 242 -400 529 -878z m3455 -515 l526 -1315 -2 -1342 -3 -1342 -532
889 -533 889 0 1604 c0 1372 5 1946 16 1935 1 -2 239 -595 528 -1318z m-30
-3274 c274 -455 494 -831 491 -835 -4 -3 -231 -7 -506 -9 l-499 -3 0 764 c0
652 5 927 15 915 2 -2 226 -376 499 -832z"/>
<path d="M6271 2540 c-56 -12 -108 -54 -138 -110 -34 -64 -32 -167 3 -239 33
-65 69 -90 208 -140 59 -22 116 -47 127 -57 30 -27 25 -79 -10 -115 -56 -56
-168 -32 -204 44 -9 19 -17 42 -17 51 0 13 -13 16 -81 16 l-82 0 6 -44 c16
-114 87 -220 166 -248 20 -7 79 -12 131 -12 77 0 103 4 137 22 78 41 133 137
133 233 0 149 -67 228 -240 284 -72 23 -121 48 -143 73 -17 19 -17 21 8 51 24
27 33 31 79 31 61 0 92 -18 112 -66 l14 -34 75 0 75 0 0 28 c0 86 -57 183
-124 213 -49 21 -174 32 -235 19z"/>
<path d="M5480 2110 l0 -420 265 0 265 0 0 80 0 80 -185 0 -185 0 0 100 0 100
170 0 170 0 0 75 0 75 -170 0 -170 0 0 90 0 90 185 0 185 0 0 75 0 75 -265 0
-265 0 0 -420z"/>
<path d="M6700 2455 l0 -75 100 0 100 0 0 -345 0 -345 75 0 75 0 0 345 0 345
100 0 100 0 0 75 0 75 -275 0 -275 0 0 -75z"/>
<path d="M7320 2110 l0 -420 265 0 265 0 0 80 0 80 -185 0 -185 0 0 100 0 100
165 0 165 0 0 75 0 75 -165 0 -165 0 0 90 0 90 180 0 180 0 0 75 0 75 -260 0
-260 0 0 -420z"/>
<path d="M7950 2110 l0 -420 123 0 c285 1 371 39 428 189 46 124 45 350 -2
476 -27 73 -98 149 -154 164 -22 6 -120 11 -217 11 l-178 0 0 -420z m297 260
c44 0 96 -47 112 -100 30 -102 21 -288 -17 -355 -25 -41 -61 -56 -153 -62
l-79 -6 0 268 0 268 53 -7 c28 -3 66 -6 84 -6z"/>
</g>
</svg>
