<?xml version="1.0" standalone="no"?>
<!DOCTYPE svg PUBLIC "-//W3C//DTD SVG 20010904//EN"
 "http://www.w3.org/TR/2001/REC-SVG-20010904/DTD/svg10.dtd">
<svg version="1.0" xmlns="http://www.w3.org/2000/svg"
 width="759.000000pt" height="759.000000pt" viewBox="0 0 759.000000 759.000000"
 preserveAspectRatio="xMidYMid meet">
<metadata>
Created by potrace 1.11, written by Peter Selinger 2001-2013
</metadata>
<g transform="translate(0.000000,759.000000) scale(0.100000,-0.100000)"
fill="#000000" stroke="none">
<path d="M746 7544 c-3 -26 -6 -883 -6 -1905 l0 -1859 23 -1 c16 -1 18 -2 5
-6 -10 -2 -18 -10 -18 -16 0 -7 336 -852 747 -1879 742 -1855 746 -1866 770
-1857 13 5 35 9 49 9 l24 0 2 2405 3 2405 634 -1058 c348 -581 641 -1068 650
-1082 9 -14 230 -382 491 -817 1155 -1928 1127 -1882 1140 -1870 10 9 14 9 17
0 4 -10 167 -13 769 -13 672 0 764 2 764 15 0 8 7 15 15 15 13 0 15 215 15
1875 l0 1875 -22 1 c-17 1 -19 2 -5 6 9 2 17 10 17 16 0 7 -336 852 -747 1879
-742 1855 -746 1866 -770 1857 -13 -5 -35 -9 -49 -9 l-24 0 -2 -2405 -3 -2405
-664 1108 c-365 609 -674 1123 -686 1142 -12 19 -363 604 -780 1300 -417 696
-762 1269 -767 1275 -5 6 -16 5 -28 -3 -18 -11 -20 -10 -20 18 l0 30 -769 0
-768 0 -7 -46z m1494 -1191 c0 -954 -2 -1134 -13 -1118 -13 20 -152 248 -172
283 -9 17 -216 360 -235 392 -25 40 -275 458 -287 480 -16 28 -13 23 -183 304
-69 113 -129 214 -135 224 -5 9 -32 55 -60 101 -27 45 -58 97 -69 114 -10 18
-60 102 -112 189 -52 86 -94 159 -94 162 0 3 306 6 680 6 l680 0 0 -1137z
m169 881 c23 -38 46 -76 51 -84 24 -39 155 -258 169 -283 18 -33 13 -23 111
-185 41 -68 83 -138 94 -155 10 -18 172 -287 360 -600 187 -312 346 -575 351
-585 6 -10 60 -100 120 -201 61 -100 118 -197 129 -214 10 -18 75 -126 145
-242 69 -115 130 -218 136 -227 5 -9 17 -29 26 -45 9 -15 269 -449 577 -963
l562 -935 0 -1149 c0 -632 -2 -1147 -4 -1145 -5 4 -800 1327 -825 1372 -9 16
-21 36 -26 45 -98 162 -1125 1872 -1139 1895 -10 18 -118 197 -240 400 -121
202 -225 375 -231 385 -12 22 -102 172 -115 192 -6 8 -80 132 -165 275 l-155
260 0 1155 c0 969 2 1151 13 1129 8 -14 33 -56 56 -95z m-856 -1074 l687
-1145 0 -2360 -1 -2360 -28 70 c-33 78 -84 206 -430 1073 -133 331 -349 873
-482 1205 -303 759 -393 984 -430 1074 l-29 72 0 1778 c0 1491 2 1774 13 1758
8 -11 323 -535 700 -1165z m5185 -4165 l-3 -1775 -454 757 c-249 417 -464 774
-476 793 -12 19 -122 202 -244 405 l-221 370 0 2360 1 2360 699 -1748 700
-1747 -2 -1775z m-1295 182 c35 -57 67 -110 71 -118 4 -8 12 -23 19 -34 97
-160 454 -754 460 -765 4 -8 17 -31 30 -51 12 -20 104 -173 205 -340 101 -167
187 -311 193 -319 5 -8 67 -113 138 -233 l130 -217 -674 0 -675 0 0 1127 0
1128 20 -38 c11 -20 49 -84 83 -140z"/>
</g>
</svg>
